<svg width="40" height="40" viewBox="0 0 40 40" fill="none" xmlns="http://www.w3.org/2000/svg">
<g id="menu-svgrepo-com 1">
<path id="Vector" fill-rule="evenodd" clip-rule="evenodd" d="M38 8C38 8.53043 37.7893 9.03914 37.4142 9.41421C37.0391 9.78929 36.5304 10 36 10H4C3.46957 10 2.96086 9.78929 2.58579 9.41421C2.21071 9.03914 2 8.53043 2 8C2 7.46957 2.21071 6.96086 2.58579 6.58579C2.96086 6.21071 3.46957 6 4 6H36C36.5304 6 37.0391 6.21071 37.4142 6.58579C37.7893 6.96086 38 7.46957 38 8ZM38 20C38 20.5304 37.7893 21.0391 37.4142 21.4142C37.0391 21.7893 36.5304 22 36 22H4C3.46957 22 2.96086 21.7893 2.58579 21.4142C2.21071 21.0391 2 20.5304 2 20C2 19.4696 2.21071 18.9609 2.58579 18.5858C2.96086 18.2107 3.46957 18 4 18H36C36.5304 18 37.0391 18.2107 37.4142 18.5858C37.7893 18.9609 38 19.4696 38 20ZM36 34C36.5304 34 37.0391 33.7893 37.4142 33.4142C37.7893 33.0391 38 32.5304 38 32C38 31.4696 37.7893 30.9609 37.4142 30.5858C37.0391 30.2107 36.5304 30 36 30H4C3.46957 30 2.96086 30.2107 2.58579 30.5858C2.21071 30.9609 2 31.4696 2 32C2 32.5304 2.21071 33.0391 2.58579 33.4142C2.96086 33.7893 3.46957 34 4 34H36Z" fill="black"/>
</g>
</svg>
